<?xml version="1.0" encoding="UTF-8" standalone="no"?> <svg id="Layer_1" data-name="Layer 1" xmlns="http://www.w3.org/2000/svg" viewBox="0 0 128 128"><defs><style>.cls-1{fill:#2d3e50;}.cls-2{fill:#1d75b8;}</style></defs><title>n</title><path class="cls-1" d="M70.56232,1.42424a47.73809,47.73809,0,0,0-48.54187,47.757c0,.2135,0,1.43694.0116,3.36586a10.37684,10.37684,0,0,1-2.23293,2.82747c-.45485.44742-1.19328,1.15754-2.03381,1.96605-3.12684,3.00663-4.18412,4.04442-4.71277,4.69142A12.1327,12.1327,0,0,0,10.853,65.93539c-.66324,2.0301-1.081,5.86659,3.56637,8.75533A27.64207,27.64207,0,0,0,17.556,76.34488c.55324.259,1.10834.505,1.66715.74725,1.20349,7.931,2.98157,19.65215,3.09017,20.37434a12.58692,12.58692,0,0,0,3.76316,8.17053c3.62253,3.31759,8.43508,3.18393,11.61715,3.09481l.13367-.00278c1.31395-.03713,2.47381-.02506,3.67822-.02692.10072,1.49357.21118,3.1765.31561,4.762l.05848.89113c.14342,2.17491.2859,4.33125.407,6.06153a6.62735,6.62735,0,0,0,6.60363,6.16549h.00557a6.46607,6.46607,0,0,0,1.29585-.13l50.00712-9.94629a8.47661,8.47661,0,0,0,6.8046-8.28378V99.14012a78.15132,78.15132,0,0,1,6.651-31.05209A47.77255,47.77255,0,0,0,70.56232,1.42424Zm33.81412,62.65836a88.19673,88.19673,0,0,0-7.479,35.05753v7.71847l-44.79542,8.91035-.19725-2.96857c-.63911-9.72629-.65489-9.78477-.85121-10.50046L50.03389,98.585H45.71471c-2.22132.00743-4.43568.01392-6.66861.01392-.52539.00093-1.074.01578-1.63234.03249-1.46154.03713-3.90518.10768-4.51876-.453-.00371-.00278-.375-.35738-.54674-1.90479l-.01485-.12253c-.00789-.05848-.032-.23392-3.507-23.12848l-.20654-1.36732-1.3223-1.61888-.53514-.46506a8.53986,8.53986,0,0,0-2.36474-1.25779L23.7433,68.037c-.56485-.2432-1.13062-.48734-1.71821-.75932.88463-.86421,2.04356-1.979,2.7444-2.652l.21257-.20515c.7751-.74539,1.46943-1.41281,1.91221-1.84909,2.23339-2.20368,4.59627-4.96061,5.18479-8.69128l.06451-.40843-.00232-.414c-.01485-2.22132-.01485-3.64713-.01485-3.87641A37.63062,37.63062,0,0,1,69.7979,11.52461c.2005,0,.40286.00093.60383.00464a37.66593,37.66593,0,0,1,33.97471,52.55334Z"/><path class="cls-2" d="M69.7259,80.34892a4.58514,4.58514,0,0,0-4.55543,4.60335,4.61709,4.61709,0,0,0,7.92193,3.20464,4.60723,4.60723,0,0,0-3.3665-7.808Z"/><path class="cls-2" d="M81.25382,42.28494a16.69159,16.69159,0,0,0-11.09356-3.83365c-7.37988,0-15.2478,4.226-16.01158,12.32762-.05987.51217.039.76367.7248.8446,1.91691.23357,3.83667.46715,5.73263.7248a8.1008,8.1008,0,0,0,.94033.09283c.43135,0,.53021-.07792.88359-1.21a7.3572,7.3572,0,0,1,7.17909-5.57976,6.91427,6.91427,0,0,1,6.14577,3.3245c.644,1.27583.99736,3.33349-.89844,5.93314a16.75879,16.75879,0,0,1-3.79774,3.48619c-1.70422,1.252-3.44732,2.56083-4.38474,4.65736C65.404,65.847,65.3831,69.76446,65.482,73.2087c0,.48821.13471.626.62594.626,1.11716-.018,2.27029-.018,3.38745-.018h1.95572c.37142,0,.76378,0,1.13509.018.58707.02094.70687-.1198.73982-.15873a.91552.91552,0,0,0,.15873-.70391c0-1.779.08087-3.38727.19464-4.92975.15879-2.09659,1.58732-3.34846,2.93817-4.56448l1.42569-1.26992c3.50406-3.09383,7.36178-6.49322,7.38273-11.17449A11.77017,11.77017,0,0,0,81.25382,42.28494Z"/></svg>